<svg width="273" height="183" viewBox="0 0 273 183" fill="none" xmlns="http://www.w3.org/2000/svg">
<path opacity="0.45" d="M124.261 182.308C192.845 182.308 248.443 178.874 248.443 174.637C248.443 170.4 192.845 166.965 124.261 166.965C55.6779 166.965 0.0800781 170.4 0.0800781 174.637C0.0800781 178.874 55.6779 182.308 124.261 182.308Z" fill="#E6E6E6"/>
<path opacity="0.58" d="M37.6751 160.195C37.6751 160.195 29.8167 158.05 28.1021 150.728C28.1021 150.728 40.2918 148.29 40.6331 160.837L37.6751 160.195Z" fill="#F29202"/>
<path opacity="0.73" d="M38.6099 159.415C38.6099 159.415 33.1164 150.728 37.9516 142.609C37.9516 142.609 47.2159 148.493 43.0957 159.431L38.6099 159.415Z" fill="#F29202"/>
<path d="M40.0239 159.423C40.0239 159.423 42.9251 150.249 51.7017 148.518C51.7017 148.518 53.327 154.466 46.0132 159.448L40.0239 159.423Z" fill="#F29202"/>
<path d="M34.3271 159.212L35.9118 170.118L45.9562 170.158L47.4352 159.269L34.3271 159.212Z" fill="#24285B"/>
<path d="M104.538 121.042L95.5991 167.639H139.206L130.267 121.042H104.538Z" fill="#C9C9C9"/>
<path d="M144.894 163.032H89.6338V172.434H144.894V163.032Z" fill="#E6E6E6"/>
<path d="M204.876 22.3052H34.6255V133.102H204.876V22.3052Z" fill="#E6E6E6"/>
<path opacity="0.56" d="M204.876 22.3052H34.6255V120.368H204.876V22.3052Z" fill="white"/>
<path d="M47.701 25.4903C49.6803 25.4903 51.2848 23.8858 51.2848 21.9065C51.2848 19.9273 49.6803 18.3228 47.701 18.3228C45.7217 18.3228 44.1172 19.9273 44.1172 21.9065C44.1172 23.8858 45.7217 25.4903 47.701 25.4903Z" fill="#24285B"/>
<path d="M58.3548 25.4903C60.3341 25.4903 61.9386 23.8858 61.9386 21.9065C61.9386 19.9273 60.3341 18.3228 58.3548 18.3228C56.3755 18.3228 54.771 19.9273 54.771 21.9065C54.771 23.8858 56.3755 25.4903 58.3548 25.4903Z" fill="#F29202"/>
<path d="M68.3909 25.4903C70.3702 25.4903 71.9747 23.8858 71.9747 21.9065C71.9747 19.9273 70.3702 18.3228 68.3909 18.3228C66.4117 18.3228 64.8071 19.9273 64.8071 21.9065C64.8071 23.8858 66.4117 25.4903 68.3909 25.4903Z" fill="#FFD200"/>
<path opacity="0.03" d="M34.6255 43.0442V53.6656H204.876V34.3245L133.086 22.9961L53.6253 32.3497L41.4355 34.7877L34.7393 42.0121L34.6255 43.0442Z" fill="black"/>
<path d="M204.64 9.61133H119.645H118.93H33.9348L19.2827 35.3318H118.93H119.645H219.293L204.64 9.61133Z" fill="#DB4828"/>
<path d="M41.4355 35.3398H63.5884V35.4292C63.5884 38.3303 62.436 41.1124 60.3847 43.1638C58.3334 45.2151 55.5511 46.3675 52.6501 46.3675H52.3738C49.4728 46.3675 46.6906 45.2151 44.6393 43.1638C42.588 41.1124 41.4355 38.3303 41.4355 35.4292V35.3398Z" fill="#DB4828"/>
<path d="M86.0586 35.3398H108.211V35.4292C108.211 38.3303 107.059 41.1124 105.008 43.1638C102.956 45.2151 100.174 46.3675 97.2732 46.3675H96.9969C94.0959 46.3675 91.3137 45.2151 89.2623 43.1638C87.211 41.1124 86.0586 38.3303 86.0586 35.4292V35.3398Z" fill="#DB4828"/>
<path d="M130.364 35.3398H152.517V35.4292C152.517 38.3303 151.365 41.1124 149.313 43.1638C147.262 45.2151 144.48 46.3675 141.579 46.3675H141.303C138.402 46.3675 135.619 45.2151 133.568 43.1638C131.517 41.1124 130.364 38.3303 130.364 35.4292V35.3398Z" fill="#DB4828"/>
<path d="M174.987 35.3398H197.14V35.4292C197.14 38.3303 195.987 41.1124 193.936 43.1638C191.885 45.2151 189.102 46.3675 186.201 46.3675H185.925C183.024 46.3675 180.242 45.2151 178.191 43.1638C176.139 41.1124 174.987 38.3303 174.987 35.4292V35.3398Z" fill="#DB4828"/>
<path d="M108.211 35.3399V35.4293C108.211 38.3303 109.363 41.1125 111.415 43.1638C113.466 45.2151 116.248 46.3676 119.149 46.3676H119.426C122.327 46.3676 125.109 45.2151 127.16 43.1638C129.211 41.1125 130.364 38.3303 130.364 35.4293V9.61133H108.211V35.3399Z" fill="#F29202"/>
<path d="M63.9058 35.3399V35.4293C63.9058 38.3303 65.0582 41.1125 67.1095 43.1638C69.1608 45.2151 71.943 46.3676 74.8441 46.3676H75.1204C78.0214 46.3676 80.8036 45.2151 82.8549 43.1638C84.9062 41.1125 86.0587 38.3303 86.0587 35.4293V35.3399L88.6916 9.61133H69.188L63.9058 35.3399Z" fill="#F29202"/>
<path d="M19.2827 35.3399V35.4293C19.2827 36.8657 19.5656 38.2881 20.1153 39.6152C20.665 40.9423 21.4708 42.1481 22.4865 43.1638C23.5022 44.1795 24.708 44.9852 26.0351 45.5349C27.3622 46.0846 28.7846 46.3676 30.221 46.3676H30.4973C33.3983 46.3676 36.1805 45.2151 38.2318 43.1638C40.2832 41.1125 41.4356 38.3303 41.4356 35.4293V35.3399L51.2768 9.61133H33.9348L19.2827 35.3399Z" fill="#F29202"/>
<path d="M169.396 9.61133H149.892L152.517 35.3399H152.818V35.4293C152.818 38.3303 153.97 41.1125 156.021 43.1638C158.073 45.2151 160.855 46.3676 163.756 46.3676H164.032C166.933 46.3676 169.715 45.2151 171.767 43.1638C173.818 41.1125 174.971 38.3303 174.971 35.4293V35.3399H174.654L169.396 9.61133Z" fill="#F29202"/>
<path d="M204.64 9.61133H187.298L197.14 35.3399V35.4293C197.14 36.8657 197.422 38.2881 197.972 39.6152C198.522 40.9423 199.328 42.1481 200.343 43.1638C201.359 44.1795 202.565 44.9852 203.892 45.5349C205.219 46.0846 206.641 46.3676 208.078 46.3676H208.354C209.791 46.3676 211.213 46.0846 212.54 45.5349C213.867 44.9852 215.073 44.1795 216.089 43.1638C217.104 42.1481 217.91 40.9423 218.46 39.6152C219.01 38.2881 219.292 36.8657 219.292 35.4293V35.3399L204.64 9.61133Z" fill="#F29202"/>
<g opacity="0.75">
<path d="M108.211 35.3399V35.4293C108.211 38.3303 109.364 41.1125 111.415 43.1638C113.466 45.2151 116.249 46.3676 119.15 46.3676H119.426C122.327 46.3676 125.109 45.2151 127.161 43.1638C129.212 41.1125 130.364 38.3303 130.364 35.4293V9.61133H108.211V35.3399Z" fill="#E9E9E9"/>
<path d="M63.9058 35.3399V35.4293C63.9058 38.3303 65.0582 41.1125 67.1095 43.1638C69.1608 45.2151 71.943 46.3676 74.8441 46.3676H75.1204C78.0214 46.3676 80.8036 45.2151 82.8549 43.1638C84.9062 41.1125 86.0587 38.3303 86.0587 35.4293V35.3399L88.6916 9.61133H69.188L63.9058 35.3399Z" fill="#E9E9E9"/>
<path d="M19.2827 35.3399V35.4293C19.2827 36.8657 19.5656 38.2881 20.1153 39.6152C20.665 40.9423 21.4708 42.1481 22.4865 43.1638C23.5022 44.1795 24.708 44.9852 26.0351 45.5349C27.3622 46.0846 28.7846 46.3676 30.221 46.3676H30.4973C33.3983 46.3676 36.1805 45.2151 38.2318 43.1638C40.2832 41.1125 41.4356 38.3303 41.4356 35.4293V35.3399L51.2768 9.61133H33.9348L19.2827 35.3399Z" fill="#E9E9E9"/>
<path d="M169.396 9.61133H149.892L152.517 35.3399H152.818V35.4293C152.818 38.3303 153.97 41.1125 156.021 43.1638C158.073 45.2151 160.855 46.3676 163.756 46.3676H164.032C166.933 46.3676 169.715 45.2151 171.767 43.1638C173.818 41.1125 174.971 38.3303 174.971 35.4293V35.3399H174.654L169.396 9.61133Z" fill="#E9E9E9"/>
<path d="M204.64 9.61133H187.298L197.14 35.3399V35.4293C197.14 36.8657 197.422 38.2881 197.972 39.6152C198.522 40.9423 199.328 42.1481 200.343 43.1638C201.359 44.1795 202.565 44.9852 203.892 45.5349C205.219 46.0846 206.641 46.3676 208.078 46.3676H208.354C209.791 46.3676 211.213 46.0846 212.54 45.5349C213.867 44.9852 215.073 44.1795 216.089 43.1638C217.104 42.1481 217.91 40.9423 218.46 39.6152C219.01 38.2881 219.292 36.8657 219.292 35.4293V35.3399L204.64 9.61133Z" fill="#E9E9E9"/>
</g>
<path d="M195.36 0.0952148H43.4507C38.1951 0.0952148 33.9346 4.35574 33.9346 9.61136H204.876C204.876 4.35574 200.615 0.0952148 195.36 0.0952148Z" fill="#DB4828"/>
<path d="M161.099 69.1299H79.1431V104.74H161.099V69.1299Z" fill="#24285B"/>
<path d="M108.211 75.501H86.0586V97.6539H108.211V75.501Z" fill="white"/>
<path d="M100.369 80.1008C99.5877 80.0443 98.8021 80.0797 98.0288 80.2064C97.353 80.312 96.6649 80.312 95.9891 80.2064C95.2185 80.0797 94.4356 80.0442 93.6567 80.1008C93.184 80.136 92.7236 80.2682 92.3042 80.4891C91.8848 80.71 91.5153 81.0149 91.2188 81.3848L88.7158 84.4729L91.1538 86.5289L92.6978 84.6273V91.1285H101.328V84.6273L102.872 86.5289L105.31 84.4729L102.807 81.3848C102.51 81.0156 102.14 80.7113 101.721 80.4904C101.302 80.2696 100.842 80.137 100.369 80.1008Z" fill="#F29202"/>
<path opacity="0.09" d="M95.2736 80.1172C95.2736 80.1172 94.8023 82.7502 96.8583 82.7258C98.9143 82.7014 98.5242 80.1416 98.5242 80.1416C97.4441 80.2727 96.3516 80.2645 95.2736 80.1172Z" fill="black"/>
<path d="M160.854 80.0443C165.459 80.0443 169.192 76.3113 169.192 71.7065C169.192 67.1016 165.459 63.3687 160.854 63.3687C156.25 63.3687 152.517 67.1016 152.517 71.7065C152.517 76.3113 156.25 80.0443 160.854 80.0443Z" fill="#FFD200"/>
<path d="M144.903 79.353H115.111V84.4727H144.903V79.353Z" fill="white"/>
<path opacity="0.28" d="M144.903 88.5444H115.111V93.6641H144.903V88.5444Z" fill="white"/>
<path opacity="0.3" d="M71.9669 65.5703H42.6221V113.842H71.9669V65.5703Z" fill="#C9C9C9"/>
<path d="M201.422 70.2192H193.263V103.554H201.422V70.2192Z" fill="#C9C9C9"/>
<path d="M229.339 154.7L227.323 161.25L230.655 163.103L233.239 156.869L229.339 154.7Z" fill="#F4A28C"/>
<path d="M211.534 82.577C216.15 76.8884 225.349 77.953 228.307 84.6249C229.253 86.845 229.766 89.2254 229.818 91.6381C230.436 106.095 237.945 113.978 244.755 111.491C251.565 109.004 254.921 96.9122 254.921 96.9122C254.921 96.9122 260.528 92.922 261.772 96.9122C263.015 100.902 257.83 100.975 257.83 100.975C257.83 100.975 251.175 140.072 222.139 115.059C203.781 99.2038 206.845 88.3875 211.534 82.577Z" fill="#F4A28C"/>
<path opacity="0.08" d="M211.534 82.577C216.15 76.8884 225.349 77.953 228.307 84.6249C229.253 86.845 229.766 89.2254 229.818 91.6381C230.436 106.095 237.945 113.978 244.755 111.491C251.565 109.004 254.921 96.9122 254.921 96.9122C254.921 96.9122 260.528 92.922 261.772 96.9122C263.015 100.902 257.83 100.975 257.83 100.975C257.83 100.975 251.175 140.072 222.139 115.059C203.781 99.2038 206.845 88.3875 211.534 82.577Z" fill="black"/>
<path opacity="0.08" d="M167.788 108.525C167.788 108.525 165.602 111.174 167.52 113.271C169.438 115.367 177.02 116.164 171.023 124.55L164.465 122.559L152.202 143.583L171.023 149.669L170.137 154.545H187.154V120.414L173.038 107.477L167.788 108.525Z" fill="black"/>
<path d="M169.853 120.374L186.748 126.395L182.368 147.532L160.775 139.837L169.853 120.374Z" fill="#FFD200"/>
<path opacity="0.04" d="M169.853 120.374L186.748 126.395L182.368 147.532L160.775 139.837L169.853 120.374Z" fill="black"/>
<path d="M183.481 126.785C183.481 126.785 188.991 118.708 183.538 113.271" stroke="#24285B" stroke-width="1.015" stroke-linecap="round" stroke-linejoin="round"/>
<path d="M173.778 124.55L191.705 125.168L193.932 146.638L171.023 145.85L173.778 124.55Z" fill="#FFD200"/>
<path d="M219.554 63.4306C220.283 65.1692 220.775 66.9977 221.017 68.8673C221.032 69.0937 221.002 69.3209 220.928 69.5354C220.854 69.75 220.738 69.9475 220.587 70.1165C220.435 70.2854 220.252 70.4223 220.046 70.519C219.841 70.6157 219.618 70.6702 219.392 70.6795C218.673 70.7644 217.945 70.6402 217.294 70.3216C216.644 70.0031 216.1 69.5038 215.727 68.8835L213.849 66.3724C213.526 65.8322 213.379 65.2047 213.428 64.5771C213.478 63.9494 213.722 63.3527 214.126 62.8699C215.548 60.9764 218.847 61.4884 219.554 63.4306Z" fill="#F4A28C"/>
<path d="M214.175 66.2832L212.875 77.319L219.083 78.0504L217.531 69.6638L214.175 66.2832Z" fill="#F4A28C"/>
<path d="M220.286 65.4468L221.586 66.3976C221.659 66.4523 221.716 66.5242 221.753 66.6068C221.791 66.6893 221.807 66.7799 221.801 66.8703C221.794 66.9607 221.765 67.048 221.716 67.1244C221.668 67.2008 221.601 67.2638 221.521 67.3077L220.359 67.9416L220.286 65.4468Z" fill="#F4A28C"/>
<path opacity="0.31" d="M217.669 70.371C217.061 70.2844 216.482 70.0561 215.979 69.7046C215.979 69.7046 215.28 73.6134 218.303 73.8329L217.669 70.371Z" fill="#CE8172"/>
<path d="M216.597 66.909C216.597 66.909 216.174 65.6738 215.264 66.0964C214.354 66.519 214.971 68.2824 216.288 68.0386L216.597 66.909Z" fill="#F4A28C"/>
<path d="M218.831 63.496C217.901 64.0703 216.882 64.485 215.816 64.7231C215.816 64.7231 216.629 68.4695 214.191 70.4767C214.191 70.4767 209.445 66.3484 211.834 63.0166C213.833 60.221 215.223 57.905 218.262 59.0102C218.703 59.1679 219.092 59.4447 219.385 59.8097C219.678 60.1748 219.864 60.614 219.923 61.0785C219.982 61.543 219.911 62.0148 219.719 62.4415C219.526 62.8683 219.218 63.2332 218.831 63.496Z" fill="#24285B"/>
<path d="M209.437 65.6332C211.3 65.6332 212.809 64.1233 212.809 62.2607C212.809 60.3981 211.3 58.8882 209.437 58.8882C207.574 58.8882 206.064 60.3981 206.064 62.2607C206.064 64.1233 207.574 65.6332 209.437 65.6332Z" fill="#24285B"/>
<path d="M216.596 66.5353C216.596 66.5353 215.881 65.1944 214.857 65.8689C213.833 66.5434 214.524 68.1687 216.182 68.2418L216.596 66.5353Z" fill="#F4A28C"/>
<path d="M212.867 77.3194L215.63 77.4332C218.834 77.5631 221.958 78.4814 224.723 80.1068C230.469 83.4955 239.188 90.0943 237.977 98.3914C236.198 110.646 226.844 121.78 226.844 121.78L203.903 120.894C203.903 120.894 184.619 76.2873 212.867 77.3194Z" fill="#F29202"/>
<path opacity="0.08" d="M210.258 81.8862C210.258 81.8862 222.61 90.7441 215.182 106.371C207.755 121.999 217.108 121.405 217.108 121.405L203.927 120.894L201.782 115.205L210.258 81.8862Z" fill="black"/>
<path d="M203.927 120.894L208.381 164.549H220.286L216.735 128.24L222.951 133.993C225.107 135.997 226.638 138.581 227.359 141.434C228.08 144.288 227.96 147.289 227.015 150.076L225.284 155.187L238.116 160.803L240.188 149.263C240.703 146.445 240.605 143.549 239.899 140.772C239.194 137.995 237.898 135.403 236.1 133.173L226.893 121.796L203.927 120.894Z" fill="#24285B"/>
<path d="M188.706 126.533C188.706 126.533 191.51 117.164 184.643 113.637" stroke="#24285B" stroke-width="1.015" stroke-linecap="round" stroke-linejoin="round"/>
<path d="M212.183 86.1608C212.045 84.7574 211.503 83.424 210.624 82.3211C209.746 81.2183 208.567 80.393 207.23 79.9448C205.892 79.4965 204.454 79.4443 203.088 79.7946C201.722 80.1448 200.487 80.8824 199.53 81.9187C196.962 84.7061 194.906 88.8425 194.825 94.9211C194.63 110.825 186.617 119.878 176.451 106.908C175.964 106.274 175.353 105.746 174.654 105.359C173.955 104.972 173.183 104.733 172.388 104.657C170.323 104.478 167.82 104.657 167.577 106.404C167.113 109.825 169.746 109.98 171.567 109.655C172.037 109.58 172.519 109.652 172.948 109.86C173.376 110.067 173.731 110.401 173.964 110.817C175.963 114.482 181.652 123.039 190.591 121.731C200.286 120.308 213.971 105.112 212.183 86.1608Z" fill="#F4A28C"/>
<path d="M272.629 79.5947H244.275V96.7092H272.629V79.5947Z" fill="#FFD200"/>
<path d="M261.959 68.8838H244.275V79.5864H261.959V68.8838Z" fill="#FFD200"/>
<path opacity="0.44" d="M261.959 68.8838H244.275V79.5864H261.959V68.8838Z" fill="white"/>
<path d="M272.636 56.8569H261.966V79.5949H272.636V56.8569Z" fill="#FFD200"/>
<path opacity="0.04" d="M272.636 56.8569H261.966V79.5949H272.636V56.8569Z" fill="black"/>
<path d="M272.84 87.5425H244.194V88.2982H272.84V87.5425Z" fill="#24285B"/>
<path d="M258.838 89.2811C259.664 89.2811 260.333 88.6116 260.333 87.7858C260.333 86.96 259.664 86.2905 258.838 86.2905C258.012 86.2905 257.343 86.96 257.343 87.7858C257.343 88.6116 258.012 89.2811 258.838 89.2811Z" fill="white"/>
<path opacity="0.29" d="M250.224 71.1675H246.697V74.2799H250.224V71.1675Z" fill="white"/>
<path d="M261.966 58.8882H248.013V68.8838H261.966V58.8882Z" fill="#FFD200"/>
<path d="M212.566 164.549L213.988 171.246H217.799L217.027 164.549H212.566Z" fill="#F4A28C"/>
<path d="M213.988 171.245L214.744 174.569L223.325 171.245C223.325 171.245 219.311 167.995 213.988 171.245Z" fill="#F29202"/>
<path d="M227.714 159.99L225.593 162.656L233.532 167.296C233.532 167.296 233.581 162.168 227.714 159.99Z" fill="#F29202"/>
<path d="M177.085 126.533C177.085 126.533 176.72 113.702 184.302 112.97" stroke="#24285B" stroke-width="1.015" stroke-linecap="round" stroke-linejoin="round"/>
<path d="M172.404 123.267C172.404 123.267 175.947 110.931 183.391 112.532" stroke="#24285B" stroke-width="1.015" stroke-linecap="round" stroke-linejoin="round"/>
<path d="M247.737 66.186H261.967" stroke="#24285B" stroke-width="0.76125" stroke-miterlimit="10"/>
<path d="M257.692 68.8836V58.888C257.692 58.888 254.637 57.1814 255.205 55.2636C255.774 53.3457 258.944 55.4667 257.692 58.888C257.692 58.888 258.944 56.0437 260.187 56.6126C261.43 57.1814 260.553 58.888 257.903 58.888" stroke="#24285B" stroke-width="0.76125" stroke-miterlimit="10"/>
</svg>
