<svg width="406" height="306" viewBox="0 0 406 306" fill="none" xmlns="http://www.w3.org/2000/svg">
<path opacity="0.3" d="M61.7125 123.382C61.7125 123.382 12.3632 234.839 142.293 236.403C272.224 237.966 331.611 220.853 332.2 164.135C332.789 107.416 285.997 54.545 204.432 53.9157C122.866 53.2864 78.7645 74.6522 61.7125 123.382Z" fill="#E6E6E6"/>
<path d="M231.968 92.5974H242.027C242.992 92.596 243.948 92.7915 244.836 93.1718C245.723 93.5521 246.524 94.1093 247.189 94.8093C247.853 95.5094 248.369 96.3376 248.703 97.2435C249.037 98.1493 249.183 99.1138 249.132 100.078L242.758 222.507C242.649 224.609 241.737 226.588 240.211 228.036C238.685 229.485 236.661 230.292 234.557 230.292H226.873L231.968 92.5974Z" fill="#24285B"/>
<path d="M273.309 143.845L274.364 166.124L295.588 175.239L308.214 163.495L306.804 151.214L287.691 131.046L273.309 143.845Z" fill="#F4A28C"/>
<path opacity="0.09" d="M273.309 143.845L274.364 166.124L295.588 175.239L308.214 163.495L306.804 151.214L287.691 131.046L273.309 143.845Z" fill="black"/>
<path d="M304.499 116.46C304.499 116.46 294.705 104.859 286.605 99.4384C270.649 88.7403 264.864 100.139 265.564 106.452C266.264 112.765 285.021 132.061 285.021 132.061L304.499 116.46Z" fill="#F4A28C"/>
<path d="M145.723 80.123C142.313 80.9107 139.284 82.8612 137.156 85.6396C135.028 88.4179 133.933 91.8506 134.061 95.348L138.912 227.298C139.037 230.717 140.305 233.995 142.513 236.608C144.721 239.221 147.742 241.018 151.092 241.711C172.211 246.116 194.011 246.116 215.129 241.711C218.479 241.018 221.5 239.221 223.708 236.608C225.917 233.995 227.184 230.717 227.309 227.298L232.161 95.348C232.288 91.8506 231.194 88.4179 229.066 85.6396C226.937 82.8612 223.908 80.9107 220.498 80.123C195.894 74.4633 170.327 74.4633 145.723 80.123Z" fill="#E6E6E6"/>
<path d="M218.235 98.6264H148.535V144.535H218.235V98.6264Z" fill="white"/>
<path d="M134.061 95.348L131.26 95.7946C129.929 96.0084 128.725 96.7076 127.879 97.7574C127.034 98.8071 126.607 100.133 126.682 101.479L133.838 226.456C133.895 227.493 134.348 228.469 135.103 229.183C135.859 229.897 136.859 230.294 137.898 230.292H139.552L134.061 95.348Z" fill="#24285B"/>
<path d="M165.262 160.44H146.738V169.575H165.262V160.44Z" fill="white"/>
<path d="M191.682 160.44H173.158V169.575H191.682V160.44Z" fill="white"/>
<path d="M218.235 160.44H199.711V169.575H218.235V160.44Z" fill="white"/>
<path d="M165.262 179.552H146.738V188.687H165.262V179.552Z" fill="white"/>
<path d="M191.682 179.552H173.158V188.687H191.682V179.552Z" fill="white"/>
<path d="M218.235 179.552H199.711V188.687H218.235V179.552Z" fill="white"/>
<path d="M165.262 198.594H146.738V207.729H165.262V198.594Z" fill="white"/>
<path d="M191.682 198.594H173.158V207.729H191.682V198.594Z" fill="white"/>
<path d="M218.235 198.594H199.711V207.729H218.235V198.594Z" fill="white"/>
<path d="M165.262 217.452H146.738V226.587H165.262V217.452Z" fill="var(--primary-color)"/>
<path d="M191.682 217.452H173.158V226.587H191.682V217.452Z" fill="#C1C1C1"/>
<path d="M218.235 217.452H199.711V226.587H218.235V217.452Z" fill="var(--primary-color)"/>
<path d="M234.982 223.035C234.713 223.035 234.454 222.928 234.264 222.738C234.074 222.547 233.967 222.289 233.967 222.02L237.012 95.348C237.012 95.0788 237.119 94.8206 237.309 94.6303C237.499 94.4399 237.758 94.333 238.027 94.333C238.296 94.333 238.554 94.4399 238.745 94.6303C238.935 94.8206 239.042 95.0788 239.042 95.348L235.997 222.02C235.997 222.289 235.89 222.547 235.7 222.738C235.509 222.928 235.251 223.035 234.982 223.035Z" fill="var(--primary-color)"/>
<path d="M213.231 86.4059H153.59V89.593H213.231V86.4059Z" fill="#C1C1C1"/>
<path d="M159.639 89.5929V35.1788L165.749 38.8937L171.687 34.1841L177.32 38.9343L184.486 34.1841L190.18 39.4215L195.854 34.1841L200.635 39.2794L207.12 35.1788V89.5929H159.639Z" fill="var(--primary-color)"/>
<path opacity="0.09" d="M219.524 92.8105L197.194 78.8441L169.281 129.645L245.163 178.05L247.274 137.328L219.524 92.8105Z" fill="black"/>
<path d="M304.53 116.497L219.424 67.3608L187.68 122.343L272.786 171.479L304.53 116.497Z" fill="#EDBE3B"/>
<path d="M292.817 121.405L254.537 99.4047L249.295 108.527L287.575 130.527L292.817 121.405Z" fill="white"/>
<path opacity="0.46" d="M223.512 117.895L209.887 110.029C208.033 108.958 205.661 109.594 204.591 111.448L203.225 113.813C202.155 115.667 202.79 118.038 204.645 119.109L218.269 126.975C220.124 128.046 222.495 127.411 223.566 125.556L224.931 123.192C226.002 121.337 225.366 118.966 223.512 117.895Z" fill="white"/>
<path opacity="0.46" d="M273.293 146.634L235.311 124.705C233.456 123.634 231.085 124.27 230.014 126.124L228.649 128.489C227.579 130.343 228.214 132.715 230.068 133.785L268.051 155.714C269.905 156.785 272.277 156.15 273.347 154.295L274.712 151.931C275.783 150.076 275.148 147.705 273.293 146.634Z" fill="white"/>
<path d="M272.142 193.265C272.142 193.265 253.537 175.269 254.694 155.872C255.222 146.961 266.702 143.52 271.949 150.747L272.152 151.041C278.994 160.755 278.354 170.864 293.315 166.824C308.276 162.785 290.859 140.201 290.859 140.201L304.5 116.46C304.5 116.46 321.217 139.663 325.43 159.597C329.642 179.532 325.43 200.573 325.43 200.573L287.286 208.551L272.142 193.265Z" fill="#F4A28C"/>
<path d="M276.82 202.948L326.636 192.27L345.566 256.266L284.189 265.411L276.82 202.948Z" fill="var(--primary-color)"/>
<path opacity="0.3" d="M226.466 96.9314C230.3 96.9314 233.409 93.8231 233.409 89.9888C233.409 86.1545 230.3 83.0462 226.466 83.0462C222.632 83.0462 219.523 86.1545 219.523 89.9888C219.523 93.8231 222.632 96.9314 226.466 96.9314Z" fill="white"/>
<path opacity="0.3" d="M234.892 101.265C238.726 101.265 241.834 98.1571 241.834 94.3229C241.834 90.4886 238.726 87.3802 234.892 87.3802C231.058 87.3802 227.949 90.4886 227.949 94.3229C227.949 98.1571 231.058 101.265 234.892 101.265Z" fill="white"/>
</svg>
